<svg width="47" height="47" viewBox="0 0 47 47" fill="none" xmlns="http://www.w3.org/2000/svg">
<path d="M40.9256 31.5078C39.2308 31.5078 38.4797 30.853 37.4204 29.9285C36.2456 28.9271 34.7819 27.6559 32.0279 27.6559C29.2545 27.6559 27.8101 28.9271 26.6352 29.9285C25.576 30.853 24.8056 31.5078 23.1108 31.5078C21.4353 31.5078 20.6649 30.853 19.6056 29.9285C18.4308 28.9271 16.9671 27.6559 14.2131 27.6559C11.4397 27.6559 9.97602 28.9271 8.80121 29.9285C7.74195 30.853 6.99082 31.5078 5.29601 31.5078C4.50638 31.5078 3.85156 32.1626 3.85156 32.9522C3.85156 33.7611 4.50638 34.3967 5.29601 34.3967C8.06934 34.3967 9.51376 33.1448 10.6886 32.1241C11.7478 31.1997 12.5182 30.5448 14.2131 30.5448C15.9079 30.5448 16.659 31.1997 17.7183 32.1241C18.8931 33.1448 20.3567 34.3967 23.1108 34.3967C25.8842 34.3967 27.3479 33.1448 28.5227 32.1241C29.5819 31.1997 30.3331 30.5448 32.0279 30.5448C33.7034 30.5448 34.4738 31.1997 35.5331 32.1241C36.7079 33.1448 38.1716 34.3967 40.9256 34.3967C41.7153 34.3967 42.3701 33.7611 42.3701 32.9522C42.3701 32.1626 41.7153 31.5078 40.9256 31.5078Z" fill="white"/>
<path d="M40.9256 23.5737C39.2308 23.5737 38.4797 22.8996 37.4204 21.9944C36.2456 20.9737 34.7819 19.7218 32.0279 19.7218C29.2545 19.7218 27.8101 20.9737 26.6352 21.9944C25.576 22.8996 24.8056 23.5737 23.1108 23.5737C21.4353 23.5737 20.6649 22.8996 19.6056 21.9944C18.4308 20.9737 16.9671 19.7218 14.2131 19.7218C11.4397 19.7218 9.97602 20.9737 8.80121 21.9944C7.74195 22.8996 6.99082 23.5737 5.29601 23.5737C4.50638 23.5737 3.85156 24.2092 3.85156 25.0181C3.85156 25.8077 4.50638 26.4625 5.29601 26.4625C8.06934 26.4625 9.51376 25.1914 10.6886 24.1707C11.7478 23.2655 12.5182 22.6107 14.2131 22.6107C15.9079 22.6107 16.659 23.2655 17.7183 24.1707C18.8931 25.1914 20.3567 26.4625 23.1108 26.4625C25.8842 26.4625 27.3479 25.1914 28.5227 24.1707C29.5819 23.2655 30.3331 22.6107 32.0279 22.6107C33.7034 22.6107 34.4738 23.2655 35.5331 24.1707C36.7079 25.1914 38.1716 26.4625 40.9256 26.4625C41.7153 26.4625 42.3701 25.8077 42.3701 25.0181C42.3701 24.2092 41.7153 23.5737 40.9256 23.5737Z" fill="white"/>
<path d="M5.29601 18.5662C8.06934 18.5662 9.51376 17.2951 10.6886 16.2936C11.7478 15.3691 12.5182 14.7143 14.2131 14.7143C15.9079 14.7143 16.659 15.3691 17.7183 16.2936C18.8931 17.2951 20.3567 18.5662 23.1108 18.5662C25.8842 18.5662 27.3479 17.2951 28.5227 16.2936C29.5819 15.3691 30.3331 14.7143 32.0279 14.7143C33.7034 14.7143 34.4738 15.3691 35.5331 16.2936C36.7079 17.2951 38.1716 18.5662 40.9256 18.5662C41.7153 18.5662 42.3701 17.9114 42.3701 17.1217C42.3701 16.3128 41.7153 15.6773 40.9256 15.6773C39.2308 15.6773 38.4797 15.0225 37.4204 14.098C36.2456 13.0773 34.7819 11.8254 32.0279 11.8254C29.2545 11.8254 27.8101 13.0773 26.6352 14.098C25.576 15.0225 24.8056 15.6773 23.1108 15.6773C21.4353 15.6773 20.6649 15.0225 19.6056 14.098C18.4308 13.0773 16.9671 11.8254 14.2131 11.8254C11.4397 11.8254 9.97602 13.0773 8.80121 14.098C7.74195 15.0225 6.99082 15.6773 5.29601 15.6773C4.50638 15.6773 3.85156 16.3128 3.85156 17.1217C3.85156 17.9114 4.50638 18.5662 5.29601 18.5662Z" fill="white"/>
</svg>
